<svg xmlns="http://www.w3.org/2000/svg">
	<symbol id="icon-mobile" viewBox="0 0 18.687 29.88">
		<path d="M233.723,4588.82H248.65a1.87,1.87,0,0,1,1.866,1.87v26.12a1.87,1.87,0,0,1-1.866,1.87H233.723a1.87,1.87,0,0,1-1.866-1.87v-26.12A1.87,1.87,0,0,1,233.723,4588.82Zm3.265,1.87h8.4a0.465,0.465,0,1,1,0,.93h-8.4A0.465,0.465,0,1,1,236.988,4590.69Zm-3.265,2.8H248.65v21.46H233.723v-21.46Zm7.464,22.39a0.93,0.93,0,1,1-.933.93A0.934,0.934,0,0,1,241.187,4615.88Z" transform="translate(-231.844 -4588.81)" fill-rule="evenodd" />
	</symbol>
	<symbol id="icon-arrows" viewBox="0 0 745.14935 820.2387">
		<g transform="translate(300)">
			<path d="m -73.039,756.23873 c -53.02096,0 -101.01892,-21.493 -135.76489,-56.239 L -190.53143,681.73127 -300,654.985 l 23.68953,108.70447 22.25662,-18.43974 c 46.32696,46.329 110.32191,74.98897 181.01485,74.98897 0,-63.99997 0,0 0,-63.99997 z" />
			<path d="m 218.18819,63.999997 c 53.021,0 101.019,21.493 135.765,56.239003 l -18.27247,18.26846 109.46866,26.74627 -23.68955,-108.704473 -22.25664,18.43974 C 352.87619,28.659997 288.88119,0 218.18819,0 c 0,63.999997 0,0 0,63.999997 z" />
		</g>
	</symbol>
</svg>
