<svg xmlns="http://www.w3.org/2000/svg">
	<symbol id="icon-mobile" viewBox="0 0 18.687 29.88">
		<path d="M233.723,4588.82H248.65a1.87,1.87,0,0,1,1.866,1.87v26.12a1.87,1.87,0,0,1-1.866,1.87H233.723a1.87,1.87,0,0,1-1.866-1.87v-26.12A1.87,1.87,0,0,1,233.723,4588.82Zm3.265,1.87h8.4a0.465,0.465,0,1,1,0,.93h-8.4A0.465,0.465,0,1,1,236.988,4590.69Zm-3.265,2.8H248.65v21.46H233.723v-21.46Zm7.464,22.39a0.93,0.93,0,1,1-.933.93A0.934,0.934,0,0,1,241.187,4615.88Z" transform="translate(-231.844 -4588.81)" fill-rule="evenodd" />
	</symbol>
	<symbol id="icon-arrows" viewBox="0 0 705.82477 863.42748">
		<g transform="translate(280.3377,21.59442)">
			<path d="M -79.388183,779.23169 C -131.25051,768.208 -173.73095,737.20534 -200.49353,695.99453 l 21.67138,-14.07019 -101.51555,-48.92159 0.57093,111.25434 25.60408,-13.40937 c 35.68227,54.94852 92.32004,96.28749 161.468166,110.98538 13.306341,-62.60141 0,0 13.306341,-62.60141 z" />
			<path d="m 224.53737,41.007023 c 51.86237,11.023686 94.34285,42.026358 121.10546,83.237177 L 323.97144,138.31439 425.48708,187.236 424.91613,75.981651 399.31202,89.391023 C 363.62971,34.442497 306.9919,-6.8965187 237.84372,-21.59442 c -13.30635,62.601443 0,0 -13.30635,62.601443 z" />
		</g>
	</symbol>
</svg>
