<svg width="60" height="58" viewBox="0 0 60 58" fill="none" xmlns="http://www.w3.org/2000/svg">
<path fill-rule="evenodd" clip-rule="evenodd" d="M33.5135 9.37067C33.3414 7.89566 34.5121 7.5269 35.7998 7.53393H44.2284C45.632 7.53393 46.9689 7.4871 47.1351 8.91763C47.3107 10.4219 46.1623 10.7614 44.8184 10.7579L36.3863 10.7544C35.0073 10.7579 33.6798 10.779 33.5135 9.37067ZM34.635 5.18796C30.5705 5.73816 29.9524 11.033 33.3204 12.7023C34.7603 13.4129 37.6705 13.1413 39.43 13.1413C43.4055 13.1413 48.5914 14.2206 49.4378 9.91385C49.8522 7.80903 48.6148 6.21344 47.2979 5.56022C45.9575 4.89647 42.8611 5.14815 41.1859 5.14815C39.3843 5.14815 36.2645 4.9667 34.635 5.18796Z" fill="#333333"/>
<path fill-rule="evenodd" clip-rule="evenodd" d="M40.0713 43.3897C39.5106 40.4467 41.5944 38.1148 43.9345 37.6723C46.8716 37.1127 49.1345 39.2011 49.5887 41.5237C50.1763 44.51 48.0821 46.863 45.7396 47.2821C42.779 47.8065 40.522 45.7462 40.0713 43.3897ZM43.6442 35.3087C40.1006 35.9292 36.9282 39.3744 37.7441 43.7983C38.395 47.3172 41.8027 50.3972 46.0896 49.6339C49.584 49.01 52.6464 45.5917 51.9464 41.2779C51.3692 37.7086 47.972 34.5548 43.6442 35.3087Z" fill="#333333"/>
<path fill-rule="evenodd" clip-rule="evenodd" d="M20.5921 7.68505C22.54 6.83399 23.7282 9.80274 21.8095 10.614C19.8885 11.4288 18.6113 8.55015 20.5921 7.68505ZM25.0452 10.0778C26.2591 4.86263 18.657 3.22373 17.3693 8.13106C15.9961 13.3732 23.864 15.1385 25.0452 10.0778Z" fill="#333333"/>
<path fill-rule="evenodd" clip-rule="evenodd" d="M9.37588 9.48775C8.96498 7.23543 12.2756 6.93106 12.5085 8.90828C12.7637 11.0997 9.71068 11.335 9.37588 9.48775ZM10.5102 5.18095C5.19434 5.83768 6.28304 13.7372 11.4257 13.1004C13.4368 12.8487 15.1284 11.019 14.8603 8.65893C14.6321 6.66298 12.7743 4.89999 10.5102 5.18095Z" fill="#333333"/>
<path fill-rule="evenodd" clip-rule="evenodd" d="M26.3431 31.1419C25.8655 31.5072 24.6609 32.9951 24.0896 33.5757C22.3009 35.3961 23.701 36.3946 24.6632 36.1968C25.3539 36.0563 27.5009 33.2269 28.1904 32.5163C29.9791 30.6795 28.4491 29.8121 26.4883 27.5059C25.9006 26.8187 25.1572 25.8471 24.5532 25.7804C23.7829 25.6961 23.276 26.1597 23.2292 26.8562C23.173 27.7482 24.5696 28.8475 25.2567 29.695C25.8784 30.4618 26.2003 30.5859 26.3431 31.1419Z" fill="#333333"/>
<path fill-rule="evenodd" clip-rule="evenodd" d="M11.9771 33.9377C11.6282 33.7235 11.8378 33.8569 11.5662 33.5795L9.31972 30.9853L10.3452 29.7491C11.9548 27.855 13.0857 27.5506 11.9185 25.8579C11.5498 25.838 11.1155 25.694 10.7268 25.8848L7.08262 29.8826C5.92485 31.4676 7.43732 32.4428 8.46632 33.6427C9.53863 34.8964 10.6566 36.766 11.9139 36.0589C13.0459 35.4221 11.997 34.0313 11.9771 33.9377Z" fill="#333333"/>
<path fill-rule="evenodd" clip-rule="evenodd" d="M17.8312 25.864L15.9301 33.7471C15.8306 34.4741 15.353 35.7348 15.5684 36.381C15.8002 37.0811 16.7999 37.4206 17.4601 36.813C17.9811 36.3342 18.5453 33.1231 18.7806 32.114C19.1517 30.5255 19.5076 28.9334 19.9056 27.3483C20.7309 24.0741 18.2328 24.4838 17.8312 25.864Z" fill="#333333"/>
<path fill-rule="evenodd" clip-rule="evenodd" d="M17.2744 43.9257C15.9434 44.408 16.5311 46.6041 18.0541 46.1581C19.4904 45.739 18.8934 43.3357 17.2744 43.9257Z" fill="#333333"/>
<path fill-rule="evenodd" clip-rule="evenodd" d="M36.7397 32.5938C37.5954 32.849 37.778 33.9447 38.7274 33.9541C39.2355 33.9576 40.3605 33.2201 40.9341 32.9754C41.6248 32.6769 42.9054 32.5201 43.2402 32.0003C43.9368 30.9175 42.6924 29.6543 44.1135 29.6473C45.0524 29.6403 45.1824 29.5736 46.0685 29.7211C46.3436 30.777 45.8531 31.6889 46.7124 32.2649C47.0413 32.4791 48.4309 32.835 48.9659 33.0621C49.6694 33.3606 50.4198 34.0805 51.2053 33.8932C51.9124 33.7223 52.1383 32.7741 52.8946 32.5599C53.3031 32.7437 54.4281 33.8874 54.6529 34.2924C54.4632 35.1201 53.4155 35.2945 53.3054 36.2228C53.2352 36.7894 53.9786 37.8816 54.2385 38.488C54.5299 39.1717 54.6704 40.4652 55.1738 40.8504C56.7003 42.0128 57.892 39.1717 57.5127 43.7934C56.5072 43.9303 55.4524 43.5651 54.9373 44.3904C54.7278 44.7287 54.3766 46.103 54.1378 46.6532C53.8662 47.2795 53.165 48.1751 53.3312 48.8552C53.5267 49.6735 54.3836 49.8608 54.6587 50.5948C54.489 51.0303 53.3312 52.2173 52.8934 52.3648C52.1898 52.0195 51.9405 51.1649 51.0847 51.0139C50.4608 50.9039 49.5781 51.584 48.9776 51.8451C48.466 52.0698 46.9535 52.4784 46.6609 52.6926C45.9444 53.2159 46.2664 54.2952 46.1493 55.2633L44.1124 55.3031C42.7579 55.3031 43.9661 53.9393 43.2426 52.8928C42.9335 52.4432 41.5697 52.2021 40.9036 51.941C40.2563 51.6858 39.2683 50.9226 38.6466 50.9987C37.9197 51.0853 37.4584 52.0312 36.8544 52.3566C36.3932 52.229 35.2319 50.9987 35.0223 50.5936C35.3173 49.9638 36.3135 49.3937 36.3733 48.6867C36.4259 48.0966 35.6802 47.0208 35.4203 46.3711C35.1253 45.6371 34.9193 44.36 34.4511 44.0451C33.3729 43.3239 32.125 44.621 32.118 43.153C32.1109 42.1744 32.0348 42.0807 32.2011 41.1758C33.2336 40.9616 34.2087 41.39 34.7367 40.5425C34.972 40.1667 35.2647 38.8802 35.5362 38.2796C35.802 37.6826 36.4821 36.8081 36.3288 36.121C36.1824 35.4736 35.2635 35.0487 34.9919 34.4083C35.1593 34.0314 36.3405 32.8525 36.7397 32.5938ZM2.34147 15.7553C2.34147 14.1 2.34147 12.4435 2.34147 10.7882C2.34147 7.79139 1.73039 4.41057 4.15714 2.83137C5.15921 2.17815 7.19964 2.41579 8.52715 2.41579H47.1561C48.6158 2.41579 50.4772 2.16059 51.5823 2.89459C52.4251 3.45415 53.1521 4.66811 53.2645 6.05532C53.4963 8.93745 53.2879 12.7924 53.2879 15.7787L2.34147 15.7553ZM2.38712 18.175L53.268 18.1645L53.2879 30.0992C52.7763 30.2666 52.2226 30.1858 51.7415 30.4141C51.2439 30.6517 51.0309 30.9971 50.6692 31.2253C49.9656 30.9807 49.3744 30.578 48.5292 30.3907C48.3735 27.8632 47.3773 27.2604 44.8159 27.2604C42.772 27.2604 41.0991 27.5121 41.0828 30.4071L38.9592 31.2382C38.2662 30.7887 37.8775 30.0453 36.4341 30.2233C35.0469 30.3907 32.8871 32.7366 32.674 33.8534C32.4317 35.1376 33.072 36.032 33.696 36.5143L32.8203 38.7198C28.9771 38.8439 29.8902 41.9004 29.7345 43.8378C27.9727 43.8378 26.2109 43.8378 24.4456 43.8378C23.6425 43.8378 22.5737 43.6939 22.0797 44.1867C21.5623 44.703 21.6782 45.6652 22.2892 46.0363C22.946 46.439 31.3453 46.1944 32.8777 46.2201L33.6843 48.3554C33.216 49.0191 32.5066 49.5424 32.6787 50.9261C32.8285 52.1131 33.6176 52.5954 34.1888 53.1679C34.7566 53.7415 35.2073 54.5012 36.2925 54.7026C37.6867 54.9578 38.3364 54.2905 38.937 53.6771L41.0605 54.5621C41.4386 57.0954 42.0696 57.6819 44.8171 57.6819C47.7039 57.6819 48.2155 57.079 48.5936 54.5282L50.6738 53.7099C51.2978 54.1723 51.8656 54.9028 53.2387 54.726C54.5428 54.5621 56.7998 52.1927 56.9883 51.0525C57.2072 49.725 56.52 48.9009 55.9827 48.3483L56.8326 46.281C58.269 46.0024 58.9 46.0199 59.5473 44.9031C60.0015 44.1188 60.7917 39.4304 57.8979 38.8029C56.8127 38.5688 56.959 39.1049 56.5809 38.0151C56.3948 37.4789 56.1232 37.0165 55.964 36.5307C56.4357 35.9945 56.9063 35.73 57.0094 34.6471C57.1124 33.5783 56.7308 32.938 56.1665 32.4112C55.4231 31.7205 55.6491 31.5461 55.6491 29.9212V14.6865C55.6491 9.42444 56.8431 2.28234 51.8597 0.371848C50.4596 -0.164306 47.7718 0.0370443 46.106 0.0370443C34.0472 0.0370443 21.9919 0.0370443 9.93309 0.0370443C5.33129 0.0370443 2.78514 -0.432384 0.847726 3.04326C-0.0712293 4.68918 0.00135062 6.13376 0.00135062 8.18824V38.5465C0.00135062 40.6982 -0.00216126 41.8407 1.02683 43.5101C3.18667 47.0091 6.29942 46.2178 10.3978 46.2178C11.188 46.2178 12.6314 46.3688 13.1688 45.9567C13.8992 45.3971 13.6768 44.2101 12.9065 43.9327C12.3587 43.7383 7.94183 43.839 7.00297 43.839C4.62071 43.839 3.72166 43.6306 2.84484 41.9121C2.0851 40.4137 2.3403 38.2188 2.3403 36.4218C2.34147 34.0817 2.21504 19.1501 2.38712 18.175Z" fill="#333333"/>
</svg>
