<svg width="584" height="594" viewBox="0 0 584 594" fill="none" xmlns="http://www.w3.org/2000/svg">
<path fill-rule="evenodd" clip-rule="evenodd" d="M308.084 493.639C407.24 493.639 488.118 413.333 488.118 314.854C488.118 216.375 407.253 136.044 308.084 136.044C208.955 136.044 128.09 216.388 128.09 314.854C128.09 413.32 208.968 493.639 308.084 493.639Z" fill="#E2E7EC"/>
<path d="M550.77 286.026C551.954 295.601 552.5 305.202 552.5 314.855C552.5 448.9 443.093 557.618 308.085 557.618C173.115 557.618 63.7085 448.9 63.7085 314.855C63.7085 275.45 73.3352 236.67 91.8082 201.818" stroke="#E2E7EC" stroke-width="5" stroke-miterlimit="10" stroke-linecap="round"/>
<path d="M166.402 590.96C66.063 537.102 3.18994 430.766 3.18994 314.855C3.18994 142.64 139.708 3 308.085 3C423.619 3 529.227 69.7758 580.86 175.488" stroke="#E2E7EC" stroke-width="5" stroke-miterlimit="10" stroke-linecap="round"/>
</svg>
