<svg width="55" height="43" viewBox="0 0 55 43" fill="none" xmlns="http://www.w3.org/2000/svg">
<path fill-rule="evenodd" clip-rule="evenodd" d="M24.3715 26.972H30.1807V30.9156H24.3715V26.972ZM18.1852 3.30873V5.59796H3.66061C1.4464 5.59796 0 7.26576 0 9.53988V23.2787C0 24.404 1.61309 25.0052 2.40112 25.1883C2.40112 28.9623 2.40112 32.7379 2.40112 36.5119C2.40112 38.8784 2.30514 39.6862 3.36931 41.129C4.14724 42.177 5.44041 43 7.19663 43H47.3522C49.9251 43 52.1494 40.961 52.1494 38.4215V29.1319C52.1494 28.2804 51.5247 27.9881 50.8849 27.9881C49.5294 27.9881 49.7483 29.4359 49.7483 30.7863L49.7197 38.7726C49.5378 39.6963 48.6404 40.5814 47.4768 40.5814H7.07371C5.90514 40.5814 5.00767 39.6963 4.82581 38.7726L4.79719 26.2078C5.34611 26.2515 6.04321 26.6025 6.61571 26.794C8.38708 27.3902 18.4765 30.1934 19.6552 29.4729C20.4718 28.9723 20.3994 27.7513 19.5743 27.3516L15.8178 26.6831C11.9753 25.9324 8.10925 24.933 4.49073 23.4617C3.86941 23.2115 2.97698 22.7781 2.39944 22.6438V10.8147C2.39944 9.47774 2.21253 8.01652 3.53601 8.01652H51.0129C52.3347 8.01652 52.1494 9.47774 52.1494 10.8147V22.6438C51.5534 22.7832 50.5986 23.2451 49.9689 23.5004C49.2044 23.8077 48.5326 24.0529 47.7446 24.3133C44.6093 25.3663 41.4639 26.2414 38.098 26.8091C36.4378 27.0828 34.3852 27.4775 32.5751 27.4775C32.5751 25.7896 31.8729 24.5534 29.9264 24.5534H24.6241C21.2969 24.5534 21.9704 27.9193 21.9704 30.9156C21.9704 32.2139 23.0817 33.3291 24.3715 33.3291H30.1807C31.4688 33.3291 32.5768 32.2139 32.5768 30.9156V29.8961C37.7309 29.8961 47.9214 27.1316 52.6142 25.0204C53.4443 24.6458 54.5522 24.4191 54.5522 23.2803V9.53988C54.5522 7.26576 53.1058 5.59628 50.8866 5.59628H20.5813V2.41856H33.9693C33.9693 3.02488 33.8396 4.4525 35.1059 4.4525C35.6262 4.4525 36.0842 3.97719 36.2222 3.54386C36.4175 2.94258 36.3468 2.46727 36.2121 1.81224C36.0117 0.859933 35.153 0 33.9693 0H20.5813C19.7596 0 19.1113 0.428287 18.7341 0.937192C18.2997 1.52504 18.1852 2.3413 18.1852 3.30873Z" fill="#333333"/>
</svg>
