<svg width="52" height="52" viewBox="0 0 52 52" fill="none" xmlns="http://www.w3.org/2000/svg">
<path fill-rule="evenodd" clip-rule="evenodd" d="M33.5786 20.4568L18.386 20.4741C18.3235 19.2784 18.5004 17.9899 19.1247 17.0572L19.4334 16.6727C19.9175 16.1419 19.4533 16.5347 20.0425 16.0658C20.4229 15.7657 20.8681 15.4656 21.343 15.3148C21.561 15.244 21.8057 15.2153 22.0473 15.1769C22.3416 15.1316 22.4125 15.0668 22.7235 15.0494C23.3006 15.017 28.7068 15.017 29.2838 15.0494L30.6041 15.2975C31.1613 15.4551 31.6972 15.8456 32.1386 16.1977L33.202 17.646C33.5595 18.2877 33.6693 19.5852 33.5786 20.4568ZM13.4677 27.9043L15.6997 30.1104C15.715 30.1254 15.7599 30.1684 15.7752 30.1858C16.1792 30.5831 16.1601 30.4489 16.2333 30.7143C16.3347 31.0837 16.2265 32.8834 16.2592 33.4406C16.2699 33.6479 16.2897 33.8251 16.3843 33.9909C16.8272 34.7833 18.2984 34.7637 18.4028 33.516C18.4371 33.093 18.4112 32.5773 18.4112 32.143L18.4135 26.5887C18.4181 24.985 18.1459 25.1275 17.3204 24.7973C15.8964 25.0302 16.2531 26.3338 16.2531 27.5341C15.9246 27.3848 15.8644 27.2446 15.5793 26.9581L14.1012 25.5573L14.0943 22.6304H37.8871L37.913 25.5573L37.5372 25.8573C37.5265 25.8679 37.509 25.883 37.4983 25.8943L36.5843 26.8096C36.2367 27.1504 36.0896 27.3841 35.7542 27.5349C35.7542 26.361 36.0957 25.0242 34.687 24.798C34.1816 25.0008 34.1274 24.8674 33.8141 25.2662C33.4315 25.7563 33.5961 27.3388 33.5961 28.187C33.5961 28.7827 33.529 33.4564 33.6632 33.8575C33.7303 34.0648 33.927 34.2759 34.0649 34.3694C34.2662 34.5036 34.6527 34.5526 34.9766 34.484C35.0696 34.4644 35.2854 34.3694 35.3486 34.3219C35.3875 34.2918 35.6185 34.0023 35.6253 33.9917C35.9173 33.4669 35.6665 31.3084 35.7618 30.7776C35.8182 30.4692 35.7572 30.6502 36.1185 30.2981L37.9831 28.4328C37.9938 28.4223 38.0113 28.4072 38.022 28.3959L38.3269 28.0913C38.3894 28.0287 38.4153 28.0031 38.4779 27.9405L38.936 27.4806C38.9512 27.4655 38.9962 27.4225 39.0115 27.4074C39.3331 27.0878 39.9559 26.5698 40.036 26.1574L40.0726 22.8589C40.0726 20.113 40.0985 20.4734 35.7809 20.4734C35.6231 19.3553 35.9646 18.5742 35.2343 16.9117C34.8905 16.1344 34.6077 15.6662 34.0588 15.0427C34.0283 15.008 33.9247 14.8956 33.8751 14.8459L32.2934 13.6871C32.0921 13.5853 32.0517 13.5227 31.8268 13.4473C31.3473 13.2792 31.2627 13.1842 30.6819 13.0914C28.6115 12.7589 28.6595 12.8909 26.4618 12.8909C24.0697 12.8909 21.3582 12.5674 19.3679 13.8755L18.8815 14.2186C18.7908 14.2857 18.7649 14.2962 18.6544 14.3784L18.1337 14.8466C17.7251 15.2673 17.0574 16.1872 16.8607 16.69C16.6816 17.1432 16.3873 17.8903 16.3202 18.3653C16.2143 19.108 16.3134 19.8762 16.2272 20.4741C15.3521 20.4741 13.6796 20.3769 12.8975 20.4892C12.5865 20.5344 12.3075 20.7312 12.1329 20.9536C12.1246 20.9664 12.1093 20.9838 12.1002 20.9966C11.7891 21.4437 11.9248 25.9071 11.9729 26.1582C12.0316 26.4499 12.1002 26.4906 12.2778 26.6852L13.3038 27.7105C13.4616 27.8757 13.3511 27.6819 13.4677 27.9043Z" fill="#333333"/>
<path fill-rule="evenodd" clip-rule="evenodd" d="M11.0742 28.0796L2.18885 28.0495L2.20409 2.12715C3.22862 2.02386 10.3896 2.10981 12.0636 2.10981C12.6559 2.10981 18.4318 2.24401 18.8961 1.98239C18.909 1.97561 18.9288 1.96279 18.9418 1.9545C18.9593 1.94394 19.0112 1.907 19.0279 1.89418C19.4083 1.62653 19.7041 1.04373 19.3306 0.469217C19.1705 0.223429 19.1293 0.257357 19.0668 0.074147C18.1704 -0.0600561 4.35986 0.02891 3.07463 0.02891C1.8603 0.02891 1.03473 -0.245528 0.232798 1.14476C-0.136915 1.79014 0.044511 4.04595 0.044511 4.97633C0.044511 8.40378 -0.0896529 28.3797 0.189347 28.9406L0.584978 29.534C0.597937 29.5491 0.809855 29.7496 0.813666 29.7541C0.940969 29.8559 0.997379 29.8687 1.15517 29.9569C1.89841 30.3776 5.76172 30.214 6.88382 30.214C8.12636 30.214 9.69974 30.2985 10.9011 30.2035C11.4827 30.1582 11.8753 29.7308 11.9233 29.2497C11.9516 28.958 11.8647 28.7378 11.6794 28.4965C11.5498 28.3262 11.6017 28.3819 11.3966 28.244C11.1793 28.097 11.4782 28.1965 11.0742 28.0796Z" fill="#333333"/>
<path fill-rule="evenodd" clip-rule="evenodd" d="M40.9362 28.0802C40.5558 28.1903 40.8257 28.0885 40.5688 28.2748C39.9483 28.7196 39.9033 29.46 40.5086 29.9847C40.7182 30.1657 40.6465 30.1446 40.9774 30.1921L49.9991 30.2049C50.4184 30.177 50.6562 30.0692 50.9543 29.9048L51.4986 29.4577C52.084 28.7543 51.9803 27.9641 51.9803 27.0443V3.53086C51.9781 2.43838 52.2006 1.16722 51.1654 0.387638C50.7934 0.10943 50.6036 0.0355427 50.2339 0.0272493C48.4753 -0.0119562 46.6595 0.0295111 44.8963 0.0295111C41.3654 0.0295111 37.8367 0.0295111 34.3058 0.0295111C33.7615 0.0295111 33.2127 -0.1062 32.8841 0.204428C32.4976 0.56934 32.4107 0.936513 32.6165 1.40698C32.6531 1.49142 32.705 1.62035 32.74 1.67237C33.0099 2.08704 33.4901 2.11041 33.9262 2.11268C36.3419 2.12549 48.6156 2.00712 49.8215 2.12775L49.7887 28.0591L40.9362 28.0802Z" fill="#333333"/>
<path fill-rule="evenodd" clip-rule="evenodd" d="M32.4536 49.6973H19.5556C19.4214 48.7518 19.5578 47.5583 20.0267 46.8715L20.1242 46.7395C20.1349 46.7267 20.1479 46.7071 20.157 46.6943C20.3948 46.3618 20.6883 46.1138 21.0779 45.8657C22.2663 45.1035 24.4015 45.3847 26.0068 45.3847C28.075 45.3847 30.6027 44.9225 31.8521 46.6973C31.8628 46.7101 31.8757 46.7297 31.8849 46.7425C31.8956 46.7554 31.9085 46.7727 31.9177 46.7878L32.1875 47.2801C32.5031 47.9594 32.5588 48.9478 32.4536 49.6973ZM17.4288 51.1675C17.5042 51.4396 17.5736 51.4909 17.7596 51.6402C17.8831 51.7374 18.0859 51.8671 18.3168 51.9011L32.8614 51.9139C33.4362 51.9161 33.8059 51.9614 34.2053 51.6719C34.4149 51.5211 34.4904 51.4449 34.5644 51.2037C34.636 50.9707 34.6375 50.7264 34.6398 50.4851C34.6574 48.4909 34.8151 46.9989 33.5962 45.4035L32.1769 44.0804C31.2301 43.4372 30.1758 43.2299 28.899 43.2277C26.8027 43.2254 24.4975 43.1394 22.4233 43.2405C21.4316 43.288 20.481 43.6438 19.7896 44.1128C19.7332 44.152 19.7073 44.1648 19.6493 44.2055L18.826 44.909C18.8154 44.9195 18.8001 44.9368 18.7895 44.9497C18.733 45.0145 18.6965 45.0748 18.6233 45.163L18.2886 45.5815C18.0165 45.9615 17.5774 46.8768 17.4958 47.308C17.3426 48.1019 17.2885 50.6623 17.4288 51.1675Z" fill="#333333"/>
<path fill-rule="evenodd" clip-rule="evenodd" d="M2.20302 49.6793C2.13366 48.9947 2.14052 48.0326 2.37988 47.5056C2.63448 46.9484 2.55292 47.0329 2.94626 46.5496C4.11562 45.1231 5.77057 45.384 7.56806 45.384C9.64913 45.384 11.8224 45.0643 13.3356 45.7165L14.0636 46.1998C15.1072 47.1279 16.1294 46.4267 16.0151 45.39C15.9503 44.814 15.5462 44.6172 15.22 44.3601L14.8739 44.103C14.5949 43.9198 14.4135 43.8399 14.0849 43.6695C12.9674 43.0912 11.0594 43.2269 9.62473 43.2269C8.09481 43.2269 6.2409 43.1342 4.74757 43.2616C4.1423 43.3159 3.39907 43.6137 2.90662 43.8467L2.02693 44.4167C1.59014 44.7688 1.18841 45.2324 0.869007 45.6969L0.653278 46.0942C0.251548 46.8497 0.0960397 47.2772 0.0548757 48.2121C0.022097 48.9743 -0.134936 51.0937 0.329302 51.5513C1.05501 52.2638 4.52117 51.914 6.04499 51.914C6.70438 51.914 13.9729 52.0173 14.4158 51.8386C15.2261 51.5106 15.2436 50.6511 14.9989 50.2108C14.8952 50.0253 14.7702 49.965 14.5903 49.8587C14.5751 49.8519 14.556 49.8391 14.5431 49.8308C14.5278 49.824 14.5088 49.8112 14.4935 49.8052C14.3639 49.7403 14.4958 49.7705 14.2664 49.723C13.4896 49.5647 3.94716 49.8564 2.20302 49.6793Z" fill="#333333"/>
<path fill-rule="evenodd" clip-rule="evenodd" d="M49.8049 49.6792C48.1301 49.8474 38.3331 49.5609 37.6783 49.7373C36.5874 50.0328 36.624 51.5159 37.6455 51.8589C37.9801 51.9712 38.4345 51.9132 38.8019 51.9132L50.9026 51.9026C51.7647 51.7903 51.9675 51.2919 51.9827 50.5621C51.9957 49.8044 52.0452 47.7929 51.8013 47.0827C51.7167 46.8323 51.7861 47.0548 51.7083 46.8753L51.4407 46.2382C51.4324 46.2232 51.4194 46.2058 51.4102 46.1907C51.4019 46.1757 51.3904 46.1561 51.382 46.1432L51.2288 45.8349C51.1076 45.6192 51.2136 45.8002 51.1076 45.6539L49.8087 44.2787C49.6486 44.1558 49.6143 44.143 49.4481 44.0367C49.4351 44.0284 49.4176 44.0148 49.4024 44.0065C48.8604 43.6658 47.8663 43.3069 47.1856 43.2556C45.6664 43.141 43.8559 43.2277 42.3062 43.2277C40.796 43.2277 39.0153 43.0784 37.8719 43.6982C37.5388 43.8791 37.4076 43.9206 37.0875 44.134L36.5668 44.52C35.5728 45.2732 35.9921 46.3483 36.6255 46.5685C37.5631 46.8964 37.6089 46.1478 39.1685 45.5197C39.9186 45.2197 43.4816 45.384 44.5145 45.384C46.4073 45.384 47.9136 45.1269 49.0952 46.5903C49.8262 47.4966 49.9322 48.436 49.8049 49.6792Z" fill="#333333"/>
<path fill-rule="evenodd" clip-rule="evenodd" d="M25.1605 2.20796C25.9213 2.02852 26.6561 2.07602 27.3582 2.40625L27.8483 2.6822C28.2028 2.95211 28.2241 2.93477 28.4833 3.26274L28.9605 4.00085C29.0619 4.18859 29.0794 4.37632 29.129 4.601C29.3043 5.38435 29.3729 5.93926 28.8652 6.83947L28.4635 7.43509C28.4551 7.44791 28.4399 7.46525 28.4307 7.47807L27.9185 7.95079C27.7546 8.08047 27.6372 8.16642 27.3826 8.25916C27.1882 8.33003 26.9938 8.42955 26.8406 8.47931C25.9609 8.7726 24.7077 8.41221 24.1741 8.01714L23.7243 7.63489C23.6527 7.56553 23.7045 7.62433 23.6123 7.51803C23.6016 7.50521 23.5863 7.48787 23.578 7.47731C23.5673 7.4645 23.5543 7.44715 23.5437 7.43434C23.5002 7.38458 23.3859 7.25942 23.3668 7.23379L23.1701 6.88848C22.5717 5.78997 22.6281 4.42985 23.3881 3.42861L23.4918 3.30571C23.7792 2.94532 23.8158 2.93854 24.203 2.64751L25.1605 2.20796ZM24.3646 0.131584C24.3387 0.271819 24.3883 0.1919 24.1985 0.269557C23.6801 0.482925 23.4339 0.442212 22.6731 1.1072L22.4094 1.31679C22.0313 1.62139 22.0229 1.7096 21.7241 2.06773L21.5472 2.27054C21.4908 2.3399 21.4496 2.41982 21.3978 2.50803C21.3871 2.52764 21.3543 2.58795 21.3437 2.60755C20.9198 3.32833 20.6004 4.30846 20.5768 5.12876C20.544 6.27476 20.897 7.3891 21.4977 8.33832L22.1159 9.09152C23.1335 10.2187 24.7366 10.7668 26.2346 10.7276C27.3887 10.6952 28.3675 10.3348 29.2487 9.6615L30.0674 8.87589C30.8579 7.94778 31.2192 7.22248 31.4113 5.89251C31.5279 5.08503 31.3465 4.32505 31.1521 3.64122L30.6376 2.55779C30.5918 2.4824 30.5728 2.42811 30.527 2.3595L30.3517 2.14991C30.088 1.84531 29.9889 1.63798 29.6405 1.35147L29.2944 1.07101C28.3644 0.247693 27.5587 0.239399 27.2995 0.0622211C26.3314 -0.0350383 25.2962 0.00416702 24.3646 0.131584Z" fill="#333333"/>
<path fill-rule="evenodd" clip-rule="evenodd" d="M45.4481 37.2419C45.3467 37.7018 45.0356 38.118 44.6873 38.403L44.4342 38.6013C44.1034 38.8018 43.2801 39.0265 42.7312 38.7958L41.7479 38.1888C41.1967 37.5887 40.9978 36.5761 41.3545 35.832L41.5558 35.5018C41.6404 35.3789 41.6831 35.3291 41.7959 35.2123C42.3646 34.6295 43.0598 34.5088 43.8922 34.6619C44.6812 34.8066 45.3208 35.5319 45.4671 36.2806C45.5258 36.5897 45.5106 36.9569 45.4481 37.2419ZM42.7754 32.4475C42.3737 32.6119 41.3621 32.547 40.2621 33.6802C40.1386 33.8054 40.1112 33.8574 40.022 33.9697C39.2224 34.9861 38.9548 35.9187 39.0691 37.2683C39.121 37.879 39.3176 38.3781 39.6073 38.8719C40.1196 39.7397 41.0313 40.603 42.0017 40.8209C42.6977 40.9762 43.367 41.2763 44.374 40.9091C45.0761 40.6543 44.4845 40.9611 45.5235 40.456C45.7804 40.3308 45.897 40.2034 46.1288 40.0051C46.202 39.9425 46.2325 39.9207 46.2584 39.8996L46.3834 39.7917C46.3941 39.7789 46.4093 39.7638 46.42 39.751L46.6662 39.4706C47.4659 38.5598 47.7334 37.3339 47.6191 36.1057C47.5261 35.0999 46.7462 33.8288 45.9123 33.261L45.1515 32.7989C45.1386 32.7921 45.1187 32.7793 45.1058 32.7732C44.7002 32.5538 43.2465 32.2575 42.7754 32.4475Z" fill="#333333"/>
<path fill-rule="evenodd" clip-rule="evenodd" d="M25.7225 34.5778C26.0274 34.4504 26.3079 34.6012 26.5892 34.6728C27.0778 34.798 27.4323 35.0287 27.7433 35.4374C28.4995 36.4303 28.171 37.8093 27.2463 38.4871C26.9848 38.6793 26.6929 38.7675 26.3384 38.8648C25.8482 39.0005 25.1042 38.7419 24.72 38.4547L24.3938 38.1629C24.3808 38.1478 24.3374 38.1003 24.3244 38.083C23.5789 37.185 23.7085 35.8422 24.6095 35.0868C24.6225 35.0762 24.64 35.0634 24.653 35.0543C24.6636 35.0438 24.6835 35.031 24.6964 35.0197C25.262 34.5733 25.2254 34.7874 25.7225 34.5778ZM25.413 32.4472C24.8077 32.693 24.9358 32.3627 23.8251 33.0104C23.7321 33.0647 23.5705 33.1574 23.4966 33.2087L23.3281 33.3406C23.0102 33.6188 22.7076 33.8865 22.4614 34.2303L21.9514 35.2511C21.5131 36.3843 21.6274 37.749 22.2304 38.8022C22.2372 38.8173 22.2502 38.8347 22.2586 38.8497L22.5917 39.3526C22.6024 39.3654 22.6153 39.3828 22.626 39.3956C22.6862 39.4732 22.6885 39.4823 22.7602 39.5728L22.9332 39.7733C22.9439 39.7861 22.9591 39.8012 22.9698 39.8125C23.4257 40.246 24.0957 40.6848 24.701 40.8289C25.5502 41.0294 26.0144 41.2496 27.0672 40.8937C27.5299 40.7361 27.35 40.9088 27.8645 40.6177C28.5087 40.2506 28.2106 40.5122 28.9577 39.8842L29.5949 39.1483C29.675 39.0337 29.7116 38.9214 29.7809 38.803C30.669 37.2491 30.4121 35.8799 29.6856 34.4768L28.8021 33.4514C28.7892 33.4409 28.7739 33.4281 28.761 33.4168C28.4004 33.1039 27.7586 32.7088 27.3004 32.607C26.8049 32.4992 25.9146 32.2444 25.413 32.4472Z" fill="#333333"/>
<path fill-rule="evenodd" clip-rule="evenodd" d="M6.52942 37.09C6.4753 36.6407 6.49512 36.3022 6.66358 35.9478L6.88617 35.4902C7.40911 34.6782 8.45498 34.4565 9.35601 34.6895C9.48102 34.7196 9.65864 34.795 9.74249 34.847C10.7708 35.4623 11.1642 36.7832 10.5223 37.8282L10.1877 38.2662C9.84388 38.607 9.6716 38.6356 9.27597 38.7947C8.51748 39.1031 7.60121 38.754 7.04626 38.1388C7.03558 38.126 7.02034 38.1109 7.00967 38.0981C6.92962 38.0076 6.58583 37.5778 6.52942 37.09ZM8.10889 32.4465C7.68125 32.6191 7.38319 32.5045 6.85568 32.7963L5.96304 33.3572C5.9455 33.3701 5.89595 33.413 5.87842 33.4281L4.91869 34.6005L4.45598 35.7254C4.40414 35.8747 4.39576 36.0036 4.3828 36.1748C4.3485 36.5917 4.35002 36.8955 4.38509 37.3125C4.42854 37.8545 4.78072 38.5859 5.01398 39.033L5.87842 40.0041C6.48597 40.5243 7.40149 40.9751 8.17293 41.04C8.51901 41.0679 8.97257 41.0792 9.31637 41.0226L11.4729 39.9995L12.2398 39.1709C12.8511 38.236 13.0371 37.3057 12.9312 36.1167C12.8321 34.979 12.1902 34.0531 11.3708 33.3663C10.5124 32.6455 8.81173 32.166 8.10889 32.4465Z" fill="#333333"/>
<path fill-rule="evenodd" clip-rule="evenodd" d="M30.2711 24.7949H21.7372L21.1777 24.9608C20.5183 25.2631 20.5686 25.9733 20.5686 26.5886C20.5709 27.1736 20.4802 29.0924 20.6532 29.5048C20.7897 29.8328 21.0748 30.1329 21.4293 30.1872C21.6259 30.2151 21.9065 30.2068 22.0925 30.1397L22.5247 29.7989C22.8708 29.3691 22.7297 27.7006 22.7297 27.0183H29.2817C29.2817 27.7715 29.1323 29.4016 29.5233 29.8396C29.8953 30.2565 30.4587 30.295 30.8284 30.1118C30.9862 30.0364 31.2476 29.7665 31.3574 29.5048C31.5282 29.097 31.4374 27.2385 31.4397 26.664C31.442 25.7705 31.4656 24.9178 30.2711 24.7949Z" fill="#333333"/>
</svg>
